<svg width="26" height="25" fill="none" xmlns="http://www.w3.org/2000/svg"><path d="M12.992 22.83c6.029 0 10.917-4.873 10.917-10.886 0-6.013-4.888-10.887-10.917-10.887-6.03 0-10.918 4.874-10.918 10.887 0 6.012 4.888 10.887 10.918 10.887Z" fill="url(#a)"/><path d="M5.9 12.408c1.283-.698 2.714-1.282 4.051-1.868 2.301-.96 4.611-1.904 6.945-2.782.454-.15 1.27-.296 1.35.37-.044.942-.224 1.878-.348 2.815-.314 2.06-.676 4.113-1.03 6.166-.121.684-.987 1.038-1.541.6-1.332-.89-2.674-1.77-3.988-2.681-.43-.433-.032-1.055.353-1.364 1.097-1.07 2.26-1.978 3.3-3.102.28-.67-.549-.106-.822.067-1.502 1.024-2.966 2.11-4.549 3.01-.809.44-1.751.064-2.56-.182-.724-.297-1.786-.596-1.16-1.049Z" fill="#fff"/><defs><linearGradient id="a" x1="9.932" y1="-9.023" x2="-4.93" y2="15.073" gradientUnits="userSpaceOnUse"><stop stop-color="#34B0DF"/><stop offset="1" stop-color="#1E88D3"/></linearGradient></defs></svg>