<svg width="27" height="26" fill="none" xmlns="http://www.w3.org/2000/svg"><rect x="2.451" y="1.572" width="22.059" height="21.998" rx="10.999" fill="url(#a)"/><rect x="2.451" y="1.572" width="22.059" height="21.998" rx="10.999" fill="url(#b)"/><rect x="2.451" y="1.572" width="22.059" height="21.998" rx="10.999" fill="url(#c)"/><path d="M18.995 8.25a1.18 1.18 0 0 1-1.182 1.179 1.18 1.18 0 0 1-1.182-1.179c0-.65.53-1.178 1.182-1.178a1.18 1.18 0 0 1 1.182 1.178Z" fill="#fff"/><path fill-rule="evenodd" clip-rule="evenodd" d="M13.48 16.5a3.934 3.934 0 0 0 3.94-3.929 3.934 3.934 0 0 0-3.94-3.928 3.934 3.934 0 0 0-3.94 3.928 3.934 3.934 0 0 0 3.94 3.929Zm0-1.572a2.36 2.36 0 0 0 2.363-2.357 2.36 2.36 0 0 0-2.363-2.357 2.36 2.36 0 0 0-2.364 2.357 2.36 2.36 0 0 0 2.364 2.357Z" fill="#fff"/><path fill-rule="evenodd" clip-rule="evenodd" d="M5.602 12.257c0-2.64 0-3.96.515-4.968a4.72 4.72 0 0 1 2.066-2.06c1.01-.514 2.334-.514 4.982-.514h.63c2.647 0 3.971 0 4.982.514a4.72 4.72 0 0 1 2.066 2.06c.515 1.008.515 2.328.515 4.968v.629c0 2.64 0 3.96-.515 4.968a4.72 4.72 0 0 1-2.066 2.06c-1.01.514-2.335.514-4.982.514h-.63c-2.648 0-3.971 0-4.982-.514a4.72 4.72 0 0 1-2.066-2.06c-.515-1.008-.515-2.328-.515-4.968v-.629Zm7.563-5.97h.63c1.35 0 2.267 0 2.976.058.691.056 1.044.158 1.29.284a3.147 3.147 0 0 1 1.378 1.373c.126.246.228.598.284 1.287.058.707.06 1.622.06 2.968v.629c0 1.346-.002 2.26-.06 2.968-.056.689-.158 1.04-.284 1.287a3.146 3.146 0 0 1-1.377 1.373c-.247.125-.6.227-1.29.284-.71.057-1.627.059-2.977.059h-.63c-1.35 0-2.267-.002-2.977-.06-.69-.056-1.044-.158-1.29-.283a3.146 3.146 0 0 1-1.377-1.373c-.126-.246-.228-.598-.285-1.287-.058-.707-.059-1.622-.059-2.968v-.629c0-1.346.001-2.26.06-2.968.056-.689.158-1.041.284-1.287a3.147 3.147 0 0 1 1.377-1.373c.246-.126.6-.228 1.29-.284.71-.058 1.627-.059 2.977-.059Z" fill="#fff"/><defs><radialGradient id="a" cx="0" cy="0" r="1" gradientUnits="userSpaceOnUse" gradientTransform="matrix(11.42358 -16.49867 16.51487 11.4348 10.33 18.07)"><stop stop-color="#B13589"/><stop offset=".793" stop-color="#C62F94"/><stop offset="1" stop-color="#8A3AC8"/></radialGradient><radialGradient id="b" cx="0" cy="0" r="1" gradientUnits="userSpaceOnUse" gradientTransform="rotate(-65.076 23.859 4.7) scale(17.7599 17.7918)"><stop stop-color="#E0E8B7"/><stop offset=".445" stop-color="#FB8A2E"/><stop offset=".715" stop-color="#E2425C"/><stop offset="1" stop-color="#E2425C" stop-opacity="0"/></radialGradient><radialGradient id="c" cx="0" cy="0" r="1" gradientUnits="userSpaceOnUse" gradientTransform="rotate(-8.108 17.27 -7.777) scale(30.6379 6.53569)"><stop offset=".157" stop-color="#406ADC"/><stop offset=".468" stop-color="#6A45BE"/><stop offset="1" stop-color="#6A45BE" stop-opacity="0"/></radialGradient></defs></svg>