<svg width="30" height="30" viewBox="0 0 30 30" fill="none" xmlns="http://www.w3.org/2000/svg">
<g clip-path="url(#clip0_219_263)">
<path d="M18.9117 8.20914C18.9001 8.22074 18.8829 8.22653 18.8713 8.2322C18.9406 8.54413 18.9233 8.87344 18.8655 9.19116C19.0618 9.4107 18.9752 9.84386 18.594 9.84386C18.0511 9.83806 17.5138 9.83806 16.9709 9.83806C18.2879 13.4599 20.067 17.2666 20.9567 21.0213C21.3841 19.3866 21.9559 17.7866 22.2275 16.1114C22.6781 13.3618 21.9387 11.5018 21.1704 8.93696C20.7487 7.54484 20.8989 6.36648 21.7249 5.48264C19.1429 3.76701 16.2373 2.88897 13.066 3.42623C11.05 3.76121 9.24771 4.58733 7.65925 5.86967C7.0412 6.37227 6.51554 6.93827 5.90316 7.40621C6.83313 7.40621 7.76322 7.43507 8.68739 7.45814C8.96465 7.46973 9.10908 7.67768 9.12068 7.89709C9.20159 7.95481 9.25931 8.04732 9.2709 8.18595C9.2709 8.22061 9.2767 8.25527 9.2767 8.28993C9.29976 8.68276 9.2767 9.08706 9.26511 9.47989C9.25931 9.67624 9.09182 9.87852 8.87807 9.86692C8.45638 9.83806 8.03469 9.77454 7.61299 9.70523C9.13214 13.1365 10.3858 16.7352 11.7837 20.23C11.8646 20.0105 11.9512 19.7911 12.0321 19.5715C12.4654 17.7115 12.9909 15.8053 13.7535 14.1301C13.0718 12.761 12.5231 11.1783 12.2458 9.69956C11.7143 9.6591 11.1829 9.61285 10.6515 9.54353C10.4436 9.51467 10.3569 9.32979 10.3973 9.17956C10.3743 9.13911 10.3569 9.09285 10.3511 9.03513C10.3164 8.76946 10.2876 8.51526 10.276 8.2496C10.2702 8.16289 10.2702 8.07631 10.2702 7.9896C10.2702 7.76426 10.4261 7.64882 10.5937 7.62563C10.6168 7.56791 10.6572 7.51586 10.7265 7.50426C12.2226 7.26166 13.7477 7.34257 15.2552 7.35983C16.2661 7.37143 17.9355 7.07098 18.8656 7.52153C19.114 7.6371 19.1198 7.98947 18.9523 8.16843C18.9348 8.18608 18.9233 8.19755 18.9117 8.20914ZM25.5547 4.61039C30.1759 8.78106 31.1059 15.5627 28.7491 21.1888C26.2306 27.1906 20.2577 29.53 14.1346 29.998C14.0076 30.0096 13.9151 29.9691 13.8515 29.9056C7.13925 29.7612 1.35126 24.7934 0.213219 18.0408C-0.838112 11.8195 2.11953 5.62127 7.38765 2.23626C13.5454 -1.72066 20.3269 -0.114802 25.5547 4.61039ZM21.8692 24.7415C25.595 21.1311 27.5591 16.845 26.2998 11.6231C24.8441 15.9958 23.3885 20.3917 21.8692 24.7415ZM18.6403 26.6188C17.9182 25.296 17.4791 23.7941 16.942 22.3962C16.3354 20.8192 15.7001 19.248 15.134 17.6595C14.0364 20.8077 12.962 23.979 11.6681 27.029C12.9332 27.2254 14.1982 27.364 15.4806 27.2716C16.5953 27.1964 17.5947 26.8902 18.6403 26.6188ZM9.19566 25.7465C7.3414 20.7615 5.27919 15.8109 3.62141 10.7624C0.854453 16.4348 3.97946 22.6272 9.19566 25.7465Z" fill="#62C0FF"/>
</g>
<defs>
<clipPath id="clip0_219_263">
<rect width="30" height="30" fill="white"/>
</clipPath>
</defs>
</svg>
