<svg width="20" height="20" fill="none" xmlns="http://www.w3.org/2000/svg"><path d="M12.5 11.464c.8-.266 1.622-.435 2.5-.533M5 10.932c.878.097 1.7.267 2.5.533M15 7.598c-.878.098-1.7.268-2.5.534M7.5 8.13c-.8-.265-1.622-.434-2.5-.532" stroke="#23BE47" stroke-width="1.5" stroke-linecap="round" stroke-linejoin="round"/><path clip-rule="evenodd" d="M10 5.11C7.838 3.897 5.907 3.416 3.348 3.333a.829.829 0 0 0-.848.834v9.877c0 .45.36.825.812.832 2.576.038 4.516.513 6.688 1.79 2.172-1.277 4.112-1.752 6.688-1.79a.83.83 0 0 0 .812-.833V4.167a.83.83 0 0 0-.848-.834c-2.559.084-4.49.565-6.652 1.776Z" stroke="#23BE47" stroke-width="1.5" stroke-linecap="round" stroke-linejoin="round"/><path d="M10 5.108v11.559" stroke="#23BE47" stroke-width="1.5" stroke-linecap="round" stroke-linejoin="round"/></svg>