<svg width="1440" height="170" viewBox="0 0 1440 170" fill="none" xmlns="http://www.w3.org/2000/svg">
<rect x="37" y="155" width="1347" height="15" fill="white"/>
<path d="M426.899 93.9545V81.9545H430.683C432.57 81.9545 434.092 81.7273 435.251 81.2727C436.411 80.7955 437.331 80.1023 438.013 79.1932C438.717 78.2614 439.308 77.1023 439.786 75.7159L440.638 73.4318L415.274 23.1818H430.547L446.979 57.5455L460.717 23.1818H475.786L451.717 79.2955C450.558 81.8864 449.183 84.2955 447.592 86.5227C446.024 88.75 444.013 90.5455 441.558 91.9091C439.104 93.2727 435.967 93.9545 432.149 93.9545H426.899ZM480.805 78.1705H494.885C494.953 79.8977 495.726 81.2614 497.203 82.2614C498.68 83.2614 500.589 83.7614 502.93 83.7614C505.294 83.7614 507.283 83.2159 508.896 82.125C510.51 81.0114 511.317 79.4205 511.317 77.3523C511.317 76.0795 510.999 74.9773 510.362 74.0455C509.726 73.0909 508.839 72.3409 507.703 71.7955C506.567 71.25 505.249 70.9773 503.749 70.9773H496.214V61.4659H503.749C505.999 61.4659 507.726 60.9432 508.93 59.8977C510.158 58.8523 510.771 57.5455 510.771 55.9773C510.771 54.2045 510.135 52.7841 508.862 51.7159C507.612 50.625 505.919 50.0795 503.783 50.0795C501.624 50.0795 499.828 50.5682 498.396 51.5455C496.987 52.5 496.26 53.75 496.214 55.2955H482.203C482.249 52.1591 483.192 49.4432 485.033 47.1477C486.896 44.8523 489.396 43.0795 492.533 41.8295C495.692 40.5795 499.226 39.9545 503.135 39.9545C507.408 39.9545 511.089 40.5568 514.18 41.7614C517.294 42.9432 519.68 44.6364 521.339 46.8409C523.021 49.0455 523.862 51.6705 523.862 54.7159C523.862 57.4886 522.953 59.8068 521.135 61.6705C519.317 63.5341 516.771 64.8636 513.499 65.6591V66.2045C515.658 66.3409 517.612 66.9205 519.362 67.9432C521.112 68.9659 522.51 70.375 523.555 72.1705C524.601 73.9432 525.124 76.0455 525.124 78.4773C525.124 81.7273 524.169 84.5114 522.26 86.8295C520.374 89.1477 517.76 90.9318 514.419 92.1818C511.101 93.4091 507.294 94.0227 502.999 94.0227C498.817 94.0227 495.067 93.4205 491.749 92.2159C488.453 90.9886 485.828 89.1932 483.874 86.8295C481.942 84.4659 480.919 81.5795 480.805 78.1705ZM570.473 61.0227V72.4432H543.132V61.0227H570.473ZM547.905 40.6364V93H534.03V40.6364H547.905ZM579.575 40.6364V93H565.803V40.6364H579.575ZM605.774 93.9886C602.433 93.9886 599.456 93.4091 596.842 92.25C594.229 91.0682 592.161 89.3295 590.638 87.0341C589.138 84.7159 588.388 81.8295 588.388 78.375C588.388 75.4659 588.922 73.0227 589.99 71.0455C591.058 69.0682 592.513 67.4773 594.354 66.2727C596.195 65.0682 598.286 64.1591 600.626 63.5455C602.99 62.9318 605.467 62.5 608.058 62.25C611.104 61.9318 613.558 61.6364 615.422 61.3636C617.286 61.0682 618.638 60.6364 619.479 60.0682C620.32 59.5 620.74 58.6591 620.74 57.5455V57.3409C620.74 55.1818 620.058 53.5114 618.695 52.3295C617.354 51.1477 615.445 50.5568 612.967 50.5568C610.354 50.5568 608.274 51.1364 606.729 52.2955C605.183 53.4318 604.161 54.8636 603.661 56.5909L590.229 55.5C590.911 52.3182 592.251 49.5682 594.251 47.25C596.251 44.9091 598.831 43.1136 601.99 41.8636C605.172 40.5909 608.854 39.9545 613.036 39.9545C615.945 39.9545 618.729 40.2955 621.388 40.9773C624.07 41.6591 626.445 42.7159 628.513 44.1477C630.604 45.5795 632.251 47.4205 633.456 49.6705C634.661 51.8977 635.263 54.5682 635.263 57.6818V93H621.49V85.7386H621.081C620.24 87.375 619.115 88.8182 617.706 90.0682C616.297 91.2955 614.604 92.2614 612.626 92.9659C610.649 93.6477 608.365 93.9886 605.774 93.9886ZM609.933 83.9659C612.07 83.9659 613.956 83.5455 615.592 82.7045C617.229 81.8409 618.513 80.6818 619.445 79.2273C620.376 77.7727 620.842 76.125 620.842 74.2841V68.7273C620.388 69.0227 619.763 69.2955 618.967 69.5455C618.195 69.7727 617.32 69.9886 616.342 70.1932C615.365 70.375 614.388 70.5455 613.411 70.7045C612.433 70.8409 611.547 70.9659 610.751 71.0795C609.047 71.3295 607.558 71.7273 606.286 72.2727C605.013 72.8182 604.024 73.5568 603.32 74.4886C602.615 75.3977 602.263 76.5341 602.263 77.8977C602.263 79.875 602.979 81.3864 604.411 82.4318C605.865 83.4545 607.706 83.9659 609.933 83.9659ZM660.405 73.8409L679.257 40.6364H693.575V93H679.734V59.6932L660.95 93H646.53V40.6364H660.405V73.8409ZM676.768 22.3636H686.893C686.871 26.5 685.337 29.8295 682.291 32.3523C679.268 34.875 675.178 36.1364 670.018 36.1364C664.837 36.1364 660.734 34.875 657.712 32.3523C654.689 29.8295 653.178 26.5 653.178 22.3636H663.234C663.212 23.9318 663.712 25.3409 664.734 26.5909C665.78 27.8409 667.541 28.4659 670.018 28.4659C672.428 28.4659 674.155 27.8523 675.2 26.625C676.246 25.3977 676.768 23.9773 676.768 22.3636ZM741.311 73.8409L760.163 40.6364H774.482V93H760.641V59.6932L741.857 93H727.436V40.6364H741.311V73.8409ZM798.26 40.6364L807.874 58.9432L817.726 40.6364H832.624L817.453 66.8182L833.033 93H818.203L807.874 74.8977L797.714 93H782.714L798.26 66.8182L783.26 40.6364H798.26ZM863.467 93V40.6364H885.797C892.251 40.6364 897.354 41.8636 901.104 44.3182C904.854 46.7727 906.729 50.2614 906.729 54.7841C906.729 57.625 905.672 59.9886 903.558 61.875C901.445 63.7614 898.513 65.0341 894.763 65.6932C897.899 65.9205 900.57 66.6364 902.774 67.8409C905.001 69.0227 906.695 70.5568 907.854 72.4432C909.036 74.3295 909.626 76.4205 909.626 78.7159C909.626 81.6932 908.831 84.25 907.24 86.3864C905.672 88.5227 903.365 90.1591 900.32 91.2955C897.297 92.4318 893.604 93 889.24 93H863.467ZM877.001 82.125H889.24C891.263 82.125 892.842 81.6477 893.979 80.6932C895.138 79.7159 895.717 78.3864 895.717 76.7045C895.717 74.8409 895.138 73.375 893.979 72.3068C892.842 71.2386 891.263 70.7045 889.24 70.7045H877.001V82.125ZM877.001 62.1818H886.104C887.558 62.1818 888.797 61.9773 889.82 61.5682C890.865 61.1364 891.661 60.5227 892.206 59.7273C892.774 58.9318 893.058 57.9886 893.058 56.8977C893.058 55.2841 892.411 54.0227 891.115 53.1136C889.82 52.2045 888.047 51.75 885.797 51.75H877.001V62.1818ZM942.439 94.0227C937.075 94.0227 932.462 92.8864 928.598 90.6136C924.757 88.3182 921.803 85.1364 919.734 81.0682C917.689 77 916.666 72.3182 916.666 67.0227C916.666 61.6591 917.7 56.9545 919.768 52.9091C921.859 48.8409 924.825 45.6705 928.666 43.3977C932.507 41.1023 937.075 39.9545 942.371 39.9545C946.939 39.9545 950.939 40.7841 954.371 42.4432C957.803 44.1023 960.518 46.4318 962.518 49.4318C964.518 52.4318 965.621 55.9545 965.825 60H952.121C951.734 57.3864 950.712 55.2841 949.053 53.6932C947.416 52.0795 945.268 51.2727 942.609 51.2727C940.359 51.2727 938.393 51.8864 936.712 53.1136C935.053 54.3182 933.757 56.0795 932.825 58.3977C931.893 60.7159 931.428 63.5227 931.428 66.8182C931.428 70.1591 931.882 73 932.791 75.3409C933.723 77.6818 935.03 79.4659 936.712 80.6932C938.393 81.9205 940.359 82.5341 942.609 82.5341C944.268 82.5341 945.757 82.1932 947.075 81.5114C948.416 80.8295 949.518 79.8409 950.382 78.5455C951.268 77.2273 951.848 75.6477 952.121 73.8068H965.825C965.598 77.8068 964.507 81.3295 962.553 84.375C960.621 87.3977 957.95 89.7614 954.541 91.4659C951.132 93.1705 947.098 94.0227 942.439 94.0227ZM998.987 94.0227C993.601 94.0227 988.964 92.9318 985.078 90.75C981.214 88.5455 978.237 85.4318 976.146 81.4091C974.055 77.3636 973.01 72.5795 973.01 67.0568C973.01 61.6705 974.055 56.9432 976.146 52.875C978.237 48.8068 981.18 45.6364 984.976 43.3636C988.794 41.0909 993.271 39.9545 998.408 39.9545C1001.86 39.9545 1005.08 40.5114 1008.06 41.625C1011.06 42.7159 1013.67 44.3636 1015.9 46.5682C1018.15 48.7727 1019.9 51.5455 1021.15 54.8864C1022.4 58.2045 1023.02 62.0909 1023.02 66.5455V70.5341H978.805V61.5341H1009.35C1009.35 59.4432 1008.9 57.5909 1007.99 55.9773C1007.08 54.3636 1005.82 53.1023 1004.2 52.1932C1002.61 51.2614 1000.76 50.7955 998.646 50.7955C996.442 50.7955 994.487 51.3068 992.783 52.3295C991.101 53.3295 989.783 54.6818 988.828 56.3864C987.874 58.0682 987.385 59.9432 987.362 62.0114V70.5682C987.362 73.1591 987.839 75.3977 988.794 77.2841C989.771 79.1705 991.146 80.625 992.919 81.6477C994.692 82.6705 996.794 83.1818 999.226 83.1818C1000.84 83.1818 1002.32 82.9545 1003.66 82.5C1005 82.0455 1006.15 81.3636 1007.1 80.4545C1008.06 79.5455 1008.78 78.4318 1009.28 77.1136L1022.71 78C1022.03 81.2273 1020.63 84.0455 1018.52 86.4545C1016.43 88.8409 1013.73 90.7045 1010.41 92.0455C1007.11 93.3636 1003.31 94.0227 998.987 94.0227Z" fill="white"/>
</svg>
