<svg width="77" height="50" viewBox="0 0 77 50" fill="none" xmlns="http://www.w3.org/2000/svg">
<rect x="8.65625" width="71" height="30" rx="11" transform="rotate(16.7745 8.65625 0)" fill="#FF4646"/>
<path d="M32.3666 13.0812L27.2371 30.0984L24.1866 29.1789L21.885 16.2583L18.5065 27.4667L15.5144 26.5648L20.6439 9.54766L23.6477 10.4531L25.9643 23.493L29.3746 12.1794L32.3666 13.0812ZM40.622 31.2899L39.8363 33.8962L32.4498 31.6697L33.2354 29.0633L40.622 31.2899ZM38.4792 14.9238L33.3497 31.9409L30.2174 30.9968L35.3469 13.9796L38.4792 14.9238ZM41.8656 23.5688L41.1011 26.105L34.708 24.1779L35.4725 21.6417L41.8656 23.5688ZM44.9191 16.865L44.1299 19.483L36.7901 17.2705L37.5793 14.6525L44.9191 16.865ZM46.4993 32.475L53.3926 19.4192L55.1341 19.9441L54.5375 22.8114L47.3047 36.1474L45.4464 35.5873L46.4993 32.475ZM49.3487 18.2002L47.3478 32.7053L46.2528 35.8303L44.2426 35.2244L46.2398 17.2631L49.3487 18.2002ZM53.7118 34.5598L60.0312 21.4202L63.1284 22.3538L54.8783 38.4303L52.868 37.8244L53.7118 34.5598ZM55.9989 20.2048L54.5227 34.9573L53.6511 38.0604L51.8044 37.5038L53.2005 22.3829L54.2809 19.6869L55.9989 20.2048Z" fill="white"/>
</svg>
