<svg width="23" height="23" fill="none" xmlns="http://www.w3.org/2000/svg"><path d="M11.408.67c6.084 0 10.864 4.767 10.864 10.833 0 6.067-4.78 10.834-10.864 10.834C5.325 22.337.545 17.57.545 11.503.545 5.437 5.325.67 11.408.67Z" fill="#2787F5"/><path d="M6.204 7.441H4.619c-.452 0-.543.213-.543.447 0 .419.537 2.494 2.501 5.24 1.31 1.874 3.154 2.89 4.832 2.89 1.007 0 1.132-.226 1.132-.615v-1.417c0-.45.095-.54.414-.54.235 0 .638.116 1.578 1.02 1.074 1.071 1.25 1.552 1.855 1.552h1.584c.453 0 .68-.226.549-.671-.143-.444-.656-1.088-1.337-1.852-.369-.435-.923-.903-1.09-1.138-.236-.301-.168-.435 0-.703l.028-.04c.238-.338 1.916-2.737 2.103-3.592.1-.335 0-.58-.479-.58h-1.584c-.403 0-.589.212-.69.446 0 0-.805 1.959-1.947 3.23-.369.369-.537.486-.738.486-.1 0-.246-.117-.246-.452v-3.13c0-.402-.117-.58-.453-.58h-2.49c-.251 0-.403.186-.403.363 0 .38.57.468.63 1.54v2.326c0 .51-.093.603-.294.603-.537 0-1.844-1.968-2.618-4.218-.152-.438-.305-.615-.71-.615Z" fill="#fff"/></svg>